# File created by Blade
# Date/Time:  Wed Jan 21 17:47:40 2015
#---------------------------------------------------------
:version 1.10
:name HOM
:units
  mass 1.0
  length 1.000000
  angle deg
:documentation
     Acclaim Skeleton File
:root
   axis xyz
   order TX TY TZ RX RY RZ
   position 0.000000 0.000000 0.000000
   orientation 0 0 0
:bonedata
   begin
      id 1
      name Spine_dum
      direction 0.000000 1.000000 0.000000
      length 7.067664
      axis 0.0 0.0 0.0 xyz
   end
   begin
      id 2
      name LeftUpLeg_dum
      direction 1.000000 0.000000 0.000000
      length 4.013002
      axis 0.0 0.0 0.0 xyz
   end
   begin
      id 3
      name RightUpLeg_dum
      direction -1.000000 0.000000 0.000000
      length 4.013002
      axis 0.0 0.0 0.0 xyz
   end
   begin
      id 4
      name Spine
      direction 0.000000 1.000000 0.000000
      length 0.000000
      axis 0.0 0.0 0.0 xyz
      dof rx ry rz
   end
   begin
      id 5
      name Spine_dum1
      direction 0.000000 1.000000 0.000000
      length 15.039886
      axis 0.0 0.0 0.0 xyz
   end
   begin
      id 6
      name Spine_dum2
      direction 0.000000 1.000000 0.000000
      length 10.530368
      axis 0.0 0.0 0.0 xyz
   end
   begin
      id 7
      name Spine_dum3
      direction 0.000000 1.000000 0.000000
      length 10.530368
      axis 0.0 0.0 0.0 xyz
   end
   begin
      id 8
      name Head
      direction 0.000000 1.000000 0.000000
      length 4.527550
      axis 0.0 0.0 0.0 xyz
      dof rx ry rz
   end
   begin
      id 9
      name LeftShoulder
      direction 1.000000 0.000000 0.000000
      length 7.028855
      axis 0.0 0.0 -90.0 xyz
      dof rx ry rz
   end
   begin
      id 10
      name LeftArm
      direction 1.000000 0.000000 0.000000
      length 10.797705
      axis 0.0 0.0 -90.0 xyz
      dof rx ry rz
   end
   begin
      id 11
      name LeftForeArm
      direction 1.000000 0.000000 0.000000
      length 7.907442
      axis 0.0 0.0 -90.0 xyz
      dof ry rz rx
   end
   begin
      id 12
      name LeftHand
      direction 0.000000 0.000000 0.000000
      length 0.000000
      axis 0.0 0.0 -90.0 xyz
      dof rx ry rz
   end
   begin
      id 13
      name LeftHand_dum1
      direction 0.000000 0.000000 0.000000
      length 0.000000
      axis 0.0 0.0 -90.0 xyz
   end
   begin
      id 14
      name LeftHand_dum2
      direction 1.000000 0.000000 0.000000
      length 3.937000
      axis 0.0 0.0 -90.0 xyz
   end
   begin
      id 15
      name LeftHandThumb1
      direction 0.000000 0.000000 1.000000
      length 3.937000
      axis 0.0 0.0 -90.0 xyz
      dof rx rz ry
   end
   begin
      id 16
      name RightShoulder
      direction -1.000000 0.000000 0.000000
      length 7.028855
      axis 0.0 0.0 90.0 xyz
      dof rx ry rz
   end
   begin
      id 17
      name RightArm
      direction -1.000000 0.000000 0.000000
      length 10.797705
      axis 0.0 0.0 90.0 xyz
      dof rx ry rz
   end
   begin
      id 18
      name RightForeArm
      direction -1.000000 0.000000 0.000000
      length 7.907442
      axis 0.0 0.0 90.0 xyz
      dof ry rz rx
   end
   begin
      id 19
      name RightHand
      direction 0.000000 0.000000 0.000000
      length 0.000000
      axis 0.0 0.0 90.0 xyz
      dof rx ry rz
   end
   begin
      id 20
      name RightHand_dum1
      direction 0.000000 0.000000 0.000000
      length 0.000000
      axis 0.0 0.0 90.0 xyz
   end
   begin
      id 21
      name RightHand_dum2
      direction -1.000000 0.000000 0.000000
      length 3.937000
      axis 0.0 0.0 90.0 xyz
   end
   begin
      id 22
      name RightHandThumb1
      direction 0.000000 0.000000 1.000000
      length 3.937000
      axis 0.0 0.0 90.0 xyz
      dof rx rz ry
   end
   begin
      id 23
      name LeftUpLeg
      direction 0.000000 -1.000000 0.000000
      length 16.899758
      axis 0.0 0.0 0.0 xyz
      dof rx ry rz
   end
   begin
      id 24
      name LeftLeg
      direction 0.000000 -1.000000 0.000000
      length 17.389183
      axis 0.0 0.0 0.0 xyz
      dof rx ry rz
   end
   begin
      id 25
      name LeftFoot
      direction 0.000000 -0.258819 0.965926
      length 4.924528
      axis 15.0 0.0 0.0 xyz
      dof rx ry rz
   end
   begin
      id 26
      name LeftToeBase
      direction 0.000000 0.000000 1.000000
      length 2.952750
      axis 0.0 0.0 0.0 xyz
      dof rx ry rz
   end
   begin
      id 27
      name RightUpLeg
      direction 0.000000 -1.000000 0.000000
      length 16.899758
      axis 0.0 0.0 0.0 xyz
      dof rx ry rz
   end
   begin
      id 28
      name RightLeg
      direction 0.000000 -1.000000 0.000000
      length 17.389183
      axis 0.0 0.0 0.0 xyz
      dof rx ry rz
   end
   begin
      id 29
      name RightFoot
      direction 0.000000 -0.258819 0.965926
      length 4.924528
      axis 15.0 0.0 0.0 xyz
      dof rx ry rz
   end
   begin
      id 30
      name RightToeBase
      direction 0.000000 0.000000 1.000000
      length 2.952750
      axis 0.0 0.0 0.0 xyz
      dof rx ry rz
   end
:hierarchy
   begin
      root Spine_dum LeftUpLeg_dum RightUpLeg_dum
      Spine_dum Spine
      LeftUpLeg_dum LeftUpLeg
      RightUpLeg_dum RightUpLeg
      Spine Spine_dum1 Spine_dum2 Spine_dum3
      Spine_dum1 Head
      Spine_dum2 LeftShoulder
      Spine_dum3 RightShoulder
      LeftShoulder LeftArm
      LeftArm LeftForeArm
      LeftForeArm LeftHand
      LeftHand LeftHand_dum1 LeftHand_dum2
      LeftHand_dum1 LeftHandThumb1
      RightShoulder RightArm
      RightArm RightForeArm
      RightForeArm RightHand
      RightHand RightHand_dum1 RightHand_dum2
      RightHand_dum1 RightHandThumb1
      LeftUpLeg LeftLeg
      LeftLeg LeftFoot
      LeftFoot LeftToeBase
      RightUpLeg RightLeg
      RightLeg RightFoot
      RightFoot RightToeBase
   end

# File created by Blade
# Date/Time:  Wed Jan 21 17:47:32 2015
# Frame Rate: 120.000 fps
#------------------------------------------------------
:FULLY-SPECIFIED
:DEGREES
1
root 17.926825 35.475375 -22.027866 -171.846923 -1.542664 -179.251898
Spine -19.454668 -0.908809 -0.406189
Head 9.227349 -1.599603 2.428758
LeftShoulder -13.425441 -30.792160 20.017365
LeftArm 2.338553 0.772256 -3.243789
LeftForeArm 8.600331 -0.000000 -3.406781
LeftHand -8.472016 -0.000000 -6.301694
LeftHandThumb1 -26.253704 0.000000 33.147579
RightShoulder -12.089585 -5.364347 -8.671585
RightArm 10.247968 37.684810 8.867830
RightForeArm -36.605900 -0.000000 4.820347
RightHand -8.449645 -0.000000 8.926819
RightHandThumb1 -24.326973 -0.000000 -32.862282
LeftUpLeg 0.957003 8.175164 3.916971
LeftLeg -5.674787 -0.000000 0.000000
LeftFoot -18.735480 23.397324 -14.279424
LeftToeBase 24.574039 -0.000000 -0.000000
RightUpLeg -0.556122 -10.165012 -3.179764
RightLeg -3.440866 -0.000000 0.000000
RightFoot -19.506708 -20.875867 19.667911
RightToeBase 24.086590 -0.000000 -0.000000
2
root 17.926794 35.474867 -22.031597 -171.829685 -1.546264 -179.248709
Spine -19.460879 -0.907023 -0.411853
Head 9.219827 -1.630484 2.415797
LeftShoulder -13.448138 -30.778713 20.032856
LeftArm 2.344634 0.764963 -3.251624
LeftForeArm 8.601225 -0.000000 -3.393700
LeftHand -8.472466 -0.000000 -6.292316
LeftHandThumb1 -26.253704 0.000000 33.147579
RightShoulder -12.006704 -5.147641 -8.728164
RightArm 10.052072 37.410124 8.744683
RightForeArm -36.650050 -0.000000 4.883769
RightHand -8.446470 -0.000000 8.942901
RightHandThumb1 -24.326973 -0.000000 -32.862282
LeftUpLeg 0.948074 8.186403 3.918541
LeftLeg -5.682495 -0.000000 0.000000
LeftFoot -18.738558 23.392512 -14.271222
LeftToeBase 24.627662 -0.000000 -0.000000
RightUpLeg -0.560441 -10.153994 -3.174949
RightLeg -3.449006 -0.000000 0.000000
RightFoot -19.501668 -20.875015 19.754618
RightToeBase 23.911782 -0.000000 -0.000000
3
root 17.926257 35.474191 -22.035062 -171.807302 -1.562988 -179.249232
Spine -19.473771 -0.907704 -0.420189
Head 9.225192 -1.626570 2.394728
LeftShoulder -13.466976 -30.765914 20.053432
LeftArm 2.358079 0.730980 -3.277325
LeftForeArm 8.648381 0.000000 -3.396667
LeftHand -8.462925 0.000000 -6.274606
LeftHandThumb1 -26.253704 0.000000 33.147579
RightShoulder -12.023594 -5.140138 -8.743905
RightArm 10.000141 37.170312 8.674705
RightForeArm -36.443026 -0.000000 4.981791
RightHand -8.322390 -0.000000 9.077864
RightHandThumb1 -24.326973 -0.000000 -32.862282
LeftUpLeg 0.930977 8.148552 3.918023
LeftLeg -5.686106 -0.000000 0.000000
LeftFoot -18.724937 23.413003 -14.255456
LeftToeBase 24.561683 -0.000000 -0.000000
RightUpLeg -0.577990 -10.193365 -3.172714
RightLeg -3.439687 -0.000000 0.000000
RightFoot -19.489475 -20.874523 19.734358
RightToeBase 23.882138 -0.000000 -0.000000
4
root 17.925806 35.473952 -22.038362 -171.789423 -1.558639 -179.246857
Spine -19.488576 -0.899805 -0.414637
Head 9.245181 -1.619073 2.340442
LeftShoulder -13.461304 -30.730004 20.024253
LeftArm 2.356354 0.719135 -3.255974
LeftForeArm 8.602529 0.000000 -3.403311
LeftHand -8.451199 -0.000000 -6.242665
LeftHandThumb1 -26.253704 0.000000 33.147579
RightShoulder -12.030831 -5.274032 -8.763164
RightArm 10.066135 37.268600 8.735101
RightForeArm -36.494541 -0.000000 4.972232
RightHand -8.501557 -0.000000 9.005863
RightHandThumb1 -24.326973 -0.000000 -32.862282
LeftUpLeg 0.919208 8.172692 3.918263
LeftLeg -5.685912 -0.000000 0.000000
LeftFoot -18.727617 23.395530 -14.247732
LeftToeBase 24.532099 -0.000000 -0.000000
RightUpLeg -0.587133 -10.193598 -3.167378
RightLeg -3.453919 -0.000000 0.000000
RightFoot -19.515928 -20.858400 19.677503
RightToeBase 24.118190 -0.000000 -0.000000
5
root 17.925153 35.473260 -22.042150 -171.781429 -1.564953 -179.248150
Spine -19.486681 -0.888898 -0.421141
Head 9.247527 -1.646182 2.295711
LeftShoulder -13.457151 -30.732403 20.018047
LeftArm 2.351785 0.713255 -3.253620
LeftForeArm 8.600225 -0.000000 -3.392327
LeftHand -8.453938 -0.000000 -6.233024
LeftHandThumb1 -26.253704 0.000000 33.147579
RightShoulder -12.025579 -5.233078 -8.788568
RightArm 10.039935 37.248695 8.715168
RightForeArm -36.551547 -0.000000 4.973508
RightHand -8.495404 -0.000000 8.965248
RightHandThumb1 -24.326973 -0.000000 -32.862282
LeftUpLeg 0.920376 8.162511 3.916793
LeftLeg -5.694058 -0.000000 0.000000
LeftFoot -18.749088 23.395173 -14.265905
LeftToeBase 24.617505 -0.000000 -0.000000
RightUpLeg -0.582020 -10.190111 -3.168212
RightLeg -3.461273 -0.000000 0.000000
RightFoot -19.518349 -20.860826 19.751448
RightToeBase 23.977768 -0.000000 -0.000000
6
root 17.924387 35.472666 -22.045613 -171.769878 -1.566041 -179.251803
Spine -19.481515 -0.875208 -0.435637
Head 9.222413 -1.641955 2.297531
LeftShoulder -13.459317 -30.740011 20.015212
LeftArm 2.354368 0.729993 -3.240075
LeftForeArm 8.561025 -0.000000 -3.395711
LeftHand -8.443607 0.000000 -6.260117
LeftHandThumb1 -26.253704 0.000000 33.147579
RightShoulder -12.032347 -5.214223 -8.798689
RightArm 10.034369 37.281668 8.708869
RightForeArm -36.552596 -0.000000 5.005656
RightHand -8.535918 -0.000000 8.974741
RightHandThumb1 -24.326973 -0.000000 -32.862282
LeftUpLeg 0.911452 8.166147 3.911165
LeftLeg -5.687574 -0.000000 0.000000
LeftFoot -18.740980 23.397315 -14.247053
LeftToeBase 24.578253 -0.000000 -0.000000
RightUpLeg -0.585506 -10.197940 -3.171090
RightLeg -3.467732 -0.000000 0.000000
RightFoot -19.511079 -20.862242 19.739264
RightToeBase 23.967245 -0.000000 -0.000000
7
root 17.923915 35.471830 -22.050374 -171.758334 -1.571954 -179.254568
Spine -19.488433 -0.878621 -0.446025
Head 9.255912 -1.656819 2.241515
LeftShoulder -13.466863 -30.734519 20.029138
LeftArm 2.347700 0.718091 -3.241182
LeftForeArm 8.573885 -0.000000 -3.395218
LeftHand -8.448513 0.000000 -6.260240
LeftHandThumb1 -26.253704 0.000000 33.147579
RightShoulder -12.026111 -5.238043 -8.810018
RightArm 10.052906 37.295984 8.722083
RightForeArm -36.445014 -0.000000 5.000489
RightHand -8.570982 -0.000000 8.873169
RightHandThumb1 -24.326973 -0.000000 -32.862282
LeftUpLeg 0.911652 8.152285 3.908122
LeftLeg -5.697055 -0.000000 0.000000
LeftFoot -18.756684 23.401447 -14.253491
LeftToeBase 24.635244 -0.000000 -0.000000
RightUpLeg -0.580811 -10.205115 -3.174106
RightLeg -3.483370 -0.000000 0.000000
RightFoot -19.519961 -20.873687 19.646574
RightToeBase 24.083568 -0.000000 -0.000000
8
root 17.923886 35.471099 -22.054134 -171.752790 -1.581647 -179.254606
Spine -19.477621 -0.869731 -0.456514
Head 9.244822 -1.666943 2.212550
LeftShoulder -13.476131 -30.732721 20.032379
LeftArm 2.356931 0.700644 -3.242511
LeftForeArm 8.565718 -0.000000 -3.389407
LeftHand -8.458664 -0.000000 -6.259104
LeftHandThumb1 -26.253704 0.000000 33.147579
RightShoulder -12.033275 -5.251285 -8.821946
RightArm 10.057833 37.323978 8.731893
RightForeArm -36.452186 -0.000000 5.008059
RightHand -8.593946 -0.000000 8.867201
RightHandThumb1 -24.326973 -0.000000 -32.862282
LeftUpLeg 0.908276 8.134269 3.910637
LeftLeg -5.688656 -0.000000 0.000000
LeftFoot -18.731657 23.408594 -14.215990
LeftToeBase 24.548748 -0.000000 -0.000000
RightUpLeg -0.569476 -10.221922 -3.171504
RightLeg -3.501869 -0.000000 0.000000
RightFoot -19.515390 -20.868958 19.649142
RightToeBase 24.106082 -0.000000 -0.000000
9
root 17.923968 35.470535 -22.058249 -171.747595 -1.583420 -179.255957
Spine -19.468426 -0.871520 -0.466114
Head 9.228428 -1.689257 2.184490
LeftShoulder -13.491269 -30.736191 20.037655
LeftArm 2.359841 0.717472 -3.233233
LeftForeArm 8.536158 0.000000 -3.396163
LeftHand -8.467007 -0.000000 -6.220256
LeftHandThumb1 -26.253704 0.000000 33.147579
RightShoulder -12.036217 -5.280244 -8.827459
RightArm 10.089766 37.358348 8.755237
RightForeArm -36.441908 0.000000 4.999303
RightHand -8.572202 0.000000 8.836010
RightHandThumb1 -24.326973 -0.000000 -32.862282
LeftUpLeg 0.911711 8.129342 3.909964
LeftLeg -5.695490 -0.000000 0.000000
LeftFoot -18.758599 23.411719 -14.250222
LeftToeBase 24.550535 -0.000000 -0.000000
RightUpLeg -0.565218 -10.232250 -3.173382
RightLeg -3.504495 -0.000000 0.000000
RightFoot -19.516428 -20.853842 19.647356
RightToeBase 24.091601 -0.000000 -0.000000
10
root 17.923392 35.469872 -22.062134 -171.740717 -1.581594 -179.255279
Spine -19.465140 -0.865392 -0.471596
Head 9.226791 -1.701460 2.145885
LeftShoulder -13.507377 -30.736086 20.047074
LeftArm 2.362592 0.710494 -3.235252
LeftForeArm 8.529430 -0.000000 -3.399739
LeftHand -8.480044 -0.000000 -6.205176
LeftHandThumb1 -26.253704 0.000000 33.147579
RightShoulder -12.029771 -5.320991 -8.834168
RightArm 10.101852 37.395512 8.764357
RightForeArm -36.440427 -0.000000 4.991969
RightHand -8.534582 -0.000000 8.823824
RightHandThumb1 -24.326973 -0.000000 -32.862282
LeftUpLeg 0.911186 8.131346 3.908364
LeftLeg -5.695948 -0.000000 0.000000
LeftFoot -18.776748 23.413707 -14.251606
LeftToeBase 24.595061 -0.000000 -0.000000
RightUpLeg -0.563965 -10.233191 -3.172667
RightLeg -3.505433 -0.000000 0.000000
RightFoot -19.517634 -20.844664 19.737799
RightToeBase 23.954886 -0.000000 -0.000000
